// Source: mermaid/docs/syntax/entityRelationshipDiagram.md:L655
// Type: misc
// Generated by mermaid sample extractor

---
title: Order example
config:
    layout: elk
---
erDiagram
    CUSTOMER ||--o{ ORDER : places
    ORDER ||--|{ LINE-ITEM : contains
    CUSTOMER }|..|{ DELIVERY-ADDRESS : uses
