// Source: mermaid/packages/mermaid/src/diagrams/class/classDiagram.spec.ts:L1675
// Type: class
// Generated by mermaid sample extractor

classDiagram
      A1 --> B1
      namespace A {
        class A1 {
          +foo : string
        }
        class A2 {
          +bar : int
        }
      }
      namespace B {
        class B1 {
          +foo : bool
        }
        class B2 {
          +bar : float
        }
      }
      A2 --> B2
