// Source: mermaid/packages/mermaid/src/mermaidAPI.spec.ts:L846
// Type: state
// Generated by mermaid sample extractor

stateDiagram
            direction LR
            [*] --> Still
            Still --> [*]
            Still --> Moving
            Moving --> Still
            Moving --> Crash
            Crash --> [*]
