// Source: mermaid/packages/mermaid/src/mermaidAPI.spec.ts:L856
// Type: state
// Generated by mermaid sample extractor

stateDiagram
          direction TB
          [*] --> Still
          Still --> [*]
          Still --> Moving
          Moving --> Still
          Moving --> Crash
          Crash --> [*]
