// Source: mermaid/packages/mermaid/src/diagrams/state/stateDiagram.spec.js:L177
// Type: state
// Generated by mermaid sample extractor

stateDiagram

        state Configuring {
          [*] --> NewValueSelection
          NewValueSelection --> NewValuePreview : EvNewValue
          NewValuePreview --> NewValueSelection : EvNewValueRejected
          NewValuePreview --> NewValueSelection : EvNewValueSaved

          state NewValuePreview {
          State1 --> State2
          }
        }
