// Source: mermaid/packages/mermaid/src/diagrams/state/stateDiagram-v2.spec.js:L312
// Type: state
// Generated by mermaid sample extractor

stateDiagram-v2

      [*] --> Active

      state Active {
        [*] --> NumLockOff
        --
        [*] --> CapsLockOff
        --
        [*] --> ScrollLockOff
      }
