// Source: mermaid/packages/mermaid/src/diagrams/state/stateDiagram.spec.js:L165
// Type: state
// Generated by mermaid sample extractor

stateDiagram

        state Configuring {
          [*] --> NewValueSelection
          NewValueSelection --> NewValuePreview : EvNewValue
          NewValuePreview --> NewValueSelection : EvNewValueRejected
          NewValuePreview --> NewValueSelection : EvNewValueSaved1
        }
