// Source: mermaid/docs/syntax/stateDiagram.md:L660
// Type: state
// Generated by mermaid sample extractor

stateDiagram
    classDef yourState font-style:italic,font-weight:bold,fill:white

    yswsii: Your state with spaces in it
    [*] --> yswsii:::yourState
    [*] --> SomeOtherState
    SomeOtherState --> YetAnotherState
    yswsii --> YetAnotherState
    YetAnotherState --> [*]
