// Source: mermaid/packages/mermaid/src/diagrams/state/stateDiagram-v2.spec.js:L275
// Type: state
// Generated by mermaid sample extractor

stateDiagram-v2

      state fork_state <<fork>>
      [*] --> fork_state
      fork_state --> State2
      fork_state --> State3

      state join_state <<join>>
      State2 --> join_state
      State3 --> join_state
      join_state --> State4
      State4 --> [*]
