// Source: mermaid/packages/mermaid/src/diagrams/state/stateDiagram.spec.js:L324
// Type: state
// Generated by mermaid sample extractor

stateDiagram

        [*] --> Active
        Active --> Inactive

        note left of Active : this is a short<br/>note

        note right of Inactive
          A note can also
          be defined on
          several lines
        end note
