// Source: mermaid/packages/mermaid/src/diagrams/state/stateDiagram-v2.spec.js:L75
// Type: state
// Generated by mermaid sample extractor

stateDiagram-v2

      hide empty description
      [*] --> State1
      State1 --> [*]
      State1 : this is a string
      State1 : this is another string

      State1 --> State2
      State2 --> [*]
