// Source: mermaid/packages/mermaid/src/diagrams/state/stateDiagram-v2.spec.js:L145
// Type: state
// Generated by mermaid sample extractor

stateDiagram-v2

      scale 350 width
      [*] --> State1
      State1 --> [*]
      State1 : this is a string with - in it
      State1 : this is another string

      State1 --> State2
      State2 --> [*]
