// Source: mermaid/docs/syntax/stateDiagram.md:L182
// Type: state
// Generated by mermaid sample extractor

stateDiagram-v2
    [*] --> First
    state First {
        [*] --> second
        second --> [*]
    }

    [*] --> NamedComposite
    NamedComposite: Another Composite
    state NamedComposite {
        [*] --> namedSimple
        namedSimple --> [*]
        namedSimple: Another simple
    }
