// Source: mermaid/packages/mermaid/src/diagrams/state/stateDiagram.spec.js:L299
// Type: state
// Generated by mermaid sample extractor

stateDiagram

        [*] --> Active

        state Active {
          [*] --> NumLockOff
          --
          [*] --> CapsLockOff
          --
          [*] --> ScrollLockOff
        }
