// Source: mermaid/docs/syntax/stateDiagram.md:L220
// Type: state
// Generated by mermaid sample extractor

stateDiagram-v2
    [*] --> First

    state First {
        [*] --> Second

        state Second {
            [*] --> second
            second --> Third

            state Third {
                [*] --> third
                third --> [*]
            }
        }
    }
