// Source: mermaid/packages/mermaid/src/diagrams/state/stateDiagram.spec.js:L239
// Type: state
// Generated by mermaid sample extractor

stateDiagram

        scale 600 width

        [*] --> State1
        State1 --> State2 : Succeeded
        State1 --> [*] : Aborted
        State2 --> State3 : Succeeded
        State2 --> [*] : Aborted
        state State3 {
          state
