// Source: mermaid/packages/mermaid/src/diagrams/state/stateDiagram.spec.js:L72
// Type: state
// Generated by mermaid sample extractor

stateDiagram

        [*] --> State1
        State1 --> [*]
        State1 : this is a string
        State1 : this is another string

        State1 --> State2
        State2 --> [*]
