// Source: mermaid/packages/mermaid/src/diagrams/state/stateDiagram.spec.js:L45
// Type: state
// Generated by mermaid sample extractor

stateDiagram

          accDescr {
             a simple description of the diagram
            using multiple lines
          }
          State1 : this is another string
          [*] --> State1
          State1 --> [*]
