// Source: mermaid/docs/syntax/stateDiagram.md:L261
// Type: state
// Generated by mermaid sample extractor

stateDiagram-v2
    [*] --> First
    First --> Second
    First --> Third

    state First {
        [*] --> fir
        fir --> [*]
    }
    state Second {
        [*] --> sec
        sec --> [*]
    }
    state Third {
        [*] --> thi
        thi --> [*]
    }
