// Source: mermaid/packages/mermaid/src/diagrams/state/stateDiagram-v2.spec.js:L178
// Type: state
// Generated by mermaid sample extractor

stateDiagram-v2

      state Configuring {
        [*] --> NewValueSelection
        NewValueSelection --> NewValuePreview : EvNewValue
        NewValuePreview --> NewValueSelection : EvNewValueRejected
        NewValuePreview --> NewValueSelection : EvNewValueSaved1
      }
