// Source: mermaid/packages/mermaid/src/diagrams/state/stateDiagram-v2.spec.js:L337
// Type: state
// Generated by mermaid sample extractor

stateDiagram-v2

      [*] --> Active
      Active --> Inactive

      note left of Active : this is a short<br/>note

      note right of Inactive
      A note can also
      be defined on
      several lines
      end note
