// Source: mermaid/packages/mermaid/src/diagrams/state/stateDiagram-v2.spec.js:L190
// Type: state
// Generated by mermaid sample extractor

stateDiagram-v2

      state Configuring {
        [*] --> NewValueSelection
        NewValueSelection --> NewValuePreview : EvNewValue
        NewValuePreview --> NewValueSelection : EvNewValueRejected
        NewValuePreview --> NewValueSelection : EvNewValueSaved

        state NewValuePreview {
          State1 --> State2
        }
      }
