// Source: mermaid/docs/config/accessibility.md:L209
// Type: er
// Generated by mermaid sample extractor

erDiagram
      accTitle: My Entity Relationship Diagram
      accDescr: My Entity Relationship Diagram Description

    CUSTOMER ||--o{ ORDER : places
    ORDER ||--|{ LINE-ITEM : contains
    CUSTOMER }|..|{ DELIVERY-ADDRESS : uses
