// Source: mermaid/docs/syntax/entityRelationshipDiagram.md:L232
// Type: er
// Generated by mermaid sample extractor

erDiagram
    CAR ||--o{ NAMED-DRIVER : allows
    CAR {
        string registrationNumber
        string make
        string model
    }
    PERSON ||--o{ NAMED-DRIVER : is
    PERSON {
        string firstName
        string lastName
        int age
    }
